<?xml version="1.0" encoding="utf-8"?>
<!-- Generator: Adobe Illustrator 16.0.0, SVG Export Plug-In . SVG Version: 6.00 Build 0)  -->
<!DOCTYPE svg PUBLIC "-//W3C//DTD SVG 1.1//EN" "http://www.w3.org/Graphics/SVG/1.1/DTD/svg11.dtd">
<svg version="1.1" xmlns="http://www.w3.org/2000/svg" xmlns:xlink="http://www.w3.org/1999/xlink" x="0px" y="0px" width="64px"
	 height="64px" viewBox="0 0 64 64" enable-background="new 0 0 64 64" xml:space="preserve">
<g id="图层_1">
	<g>
		<path fill="#182133" d="M55.438,25.67v15.777c0,2.135-1.729,3.864-3.864,3.864h-7.971v-1.933h7.971
			c1.073,0,1.933-0.859,1.933-1.932V25.67c0-1.063-0.859-1.933-1.933-1.933H11.643c-1.063,0-1.934,0.87-1.934,1.933v15.777
			c0,1.072,0.87,1.932,1.934,1.932h7.971v1.933h-7.971c-2.136,0-3.865-1.729-3.865-3.864V25.67c0-2.136,1.729-3.865,3.865-3.865
			h39.931C53.709,21.805,55.438,23.534,55.438,25.67z"/>
		<path fill="#182133" d="M44.572,23.737H19.049V13.464l5.527-6.151h19.996V23.737z M20.981,21.805H42.64V9.245H25.438l-4.456,4.959
			V21.805z"/>
		<polygon fill="#182133" points="26.376,14.8 20.016,14.8 20.016,12.868 24.443,12.868 24.443,8.762 26.376,8.762 		"/>
		<rect x="41.915" y="27.119" fill="#182133" width="1.69" height="1.932"/>
		<rect x="49.564" y="27.119" fill="#182133" width="1.69" height="1.932"/>
		<rect x="45.699" y="27.119" fill="#182133" width="1.932" height="1.932"/>
		<path fill="#182133" d="M44.572,56.582H18.646V34.768h25.926V56.582z M20.579,54.648H42.64V36.7H20.579V54.648z"/>
		<rect x="17.681" y="34.768" fill="#182133" width="28.019" height="1.933"/>
		<rect x="24.443" y="39.759" fill="#182133" width="14.492" height="1.933"/>
		<rect x="24.441" y="44.708" fill="#182133" width="14.492" height="1.932"/>
		<rect x="24.443" y="49.221" fill="#182133" width="14.492" height="1.932"/>
	</g>
</g>
<g id="图层_2">
</g>
</svg>
