<?xml version="1.0" encoding="utf-8"?>
<!-- Generator: Adobe Illustrator 16.0.0, SVG Export Plug-In . SVG Version: 6.00 Build 0)  -->
<!DOCTYPE svg PUBLIC "-//W3C//DTD SVG 1.1//EN" "http://www.w3.org/Graphics/SVG/1.1/DTD/svg11.dtd">
<svg version="1.1" xmlns="http://www.w3.org/2000/svg" xmlns:xlink="http://www.w3.org/1999/xlink" x="0px" y="0px" width="64px"
	 height="64px" viewBox="0 0 64 64" enable-background="new 0 0 64 64" xml:space="preserve">
<g id="图层_1">
	<g>
		<path fill="#182133" d="M44,58.963H18.75c-1.654,0-3-1.346-3-3V6.97c0-1.654,1.346-3,3-3H44c1.654,0,3,1.346,3,3v48.993
			C47,57.617,45.654,58.963,44,58.963z M18.75,5.97c-0.551,0-1,0.448-1,1v48.993c0,0.552,0.449,1,1,1H44c0.551,0,1-0.448,1-1V6.97
			c0-0.552-0.449-1-1-1H18.75z"/>
		<rect x="17.75" y="47.095" fill="#182133" width="27.5" height="2"/>
		<rect x="17.75" y="8.845" fill="#182133" width="27.5" height="2"/>
		<path fill="#182133" d="M31.375,55.22c-1.585,0-2.875-1.29-2.875-2.875s1.29-2.875,2.875-2.875s2.875,1.29,2.875,2.875
			S32.96,55.22,31.375,55.22z M31.375,51.47c-0.482,0-0.875,0.393-0.875,0.875s0.393,0.875,0.875,0.875s0.875-0.393,0.875-0.875
			S31.857,51.47,31.375,51.47z"/>
		<text transform="matrix(1 0 0 1 21.75 31.4668)" fill="#182133" font-family="'FZLTCHK--GBK1-0'" font-size="10.0606">iOS</text>
	</g>
</g>
<g id="图层_2">
</g>
</svg>
