<?xml version="1.0" encoding="utf-8"?>
<!-- Generator: Adobe Illustrator 16.0.0, SVG Export Plug-In . SVG Version: 6.00 Build 0)  -->
<!DOCTYPE svg PUBLIC "-//W3C//DTD SVG 1.1//EN" "http://www.w3.org/Graphics/SVG/1.1/DTD/svg11.dtd">
<svg version="1.1" xmlns="http://www.w3.org/2000/svg" xmlns:xlink="http://www.w3.org/1999/xlink" x="0px" y="0px" width="64px"
	 height="64px" viewBox="0 0 64 64" enable-background="new 0 0 64 64" xml:space="preserve">
<g id="图层_1">
</g>
<g id="图层_2">
	<g>
		<g>
			<path fill="#182133" d="M31.976,39.494c-0.152,0-0.305-0.005-0.461-0.018c-5.566-0.435-8.437-6.754-9.115-8.468
				c-0.838-0.493-2.42-1.826-2.254-4.812c-0.001-1.713,0.709-2.651,2.114-2.742c-0.001-0.048-0.003-0.096-0.004-0.142
				c-0.053-1.735-0.164-5.343,2.211-7.813c1.558-1.62,3.893-2.456,6.941-2.481l0.149-0.001c8.979,0,9.171,7.153,9.244,9.846
				c0.005,0.181,0.01,0.383,0.018,0.562c1.292-0.186,1.988,0.604,2.055,2.338c0.086,2.237-1.305,3.557-2.017,4.083
				C40.271,31.722,37.515,39.494,31.976,39.494z M22.346,25.583c-0.029,0.095-0.071,0.297-0.071,0.673
				c-0.133,2.438,1.317,2.98,1.332,2.985l0.483,0.171l0.168,0.485c0.025,0.071,2.512,7.07,7.423,7.455
				c3.958,0.335,6.568-6.042,7.236-8.458l0.121-0.436l0.397-0.218c0.047-0.027,1.37-0.799,1.309-2.393
				c-0.004-0.096-0.009-0.178-0.015-0.249c-0.518,0.063-1.034-0.055-1.439-0.372c-0.57-0.443-0.589-1.144-0.62-2.304
				c-0.102-3.761-0.743-7.773-7.114-7.773l-0.131,0.001c-2.454,0.021-4.278,0.636-5.423,1.827c-1.753,1.824-1.665,4.717-1.617,6.271
				c0.03,0.994,0.047,1.54-0.451,1.955c-0.452,0.376-1,0.376-1.263,0.376l-0.183-0.001C22.426,25.579,22.38,25.581,22.346,25.583z"
				/>
			<path fill="#182133" d="M32.598,55.564c-0.586,0-1.189-0.004-1.815-0.014c-10.469-0.151-16.681-1.277-18.462-3.347
				c-0.55-0.639-0.543-1.2-0.514-1.412c-0.002-0.029,0.723-12.248,15.508-14.722l0.34-0.057l0.309,0.154
				c1.418,0.704,2.39,1.187,3.449,1.187l0.144-0.003c1.172-0.047,2.258-0.524,3.308-0.986c0.329-0.145,0.65-0.285,0.964-0.41
				l0.263-0.105l0.28,0.04c13.945,1.97,14.491,14.884,14.494,15.016l0.003,0.102l-0.017,0.101
				C50.681,52.151,48.86,55.564,32.598,55.564z M13.94,50.818c0.339,0.379,2.809,2.397,16.874,2.602
				c14.595,0.226,17.471-2.2,17.905-2.713c-0.135-1.713-1.375-10.962-12.364-12.667c-0.208,0.087-0.418,0.18-0.633,0.275
				c-1.174,0.516-2.505,1.102-4.082,1.164l-0.228,0.005c-1.474,0-2.7-0.569-4.083-1.254C15.439,40.385,14.076,49.48,13.94,50.818z"
				/>
		</g>
		<path fill="#182133" d="M52.213,48.892l-0.032-2.131c4.795-0.073,5.667-0.467,5.82-0.632c0.039-0.106,1.485-4.742-5.505-9.393
			c-5.439-3.317-7.689-2.828-8.649-2.62c-0.456,0.098-1.401,0.304-1.903-0.61c-0.213-0.388-0.265-0.773-0.151-1.143
			c0.182-0.594,0.676-0.849,1.155-1.094c0.555-0.285,1.394-0.716,2.431-1.837c1.902-2.053,1.849-4.546,1.848-4.571
			c-0.01-0.34,0.142-0.664,0.411-0.873c0.007-0.005,1.234-1.006,1.368-2.622c0.03-0.361,0.016-0.555,0.001-0.648
			c-0.017-0.007-0.033-0.015-0.05-0.023c-0.298-0.143-0.798-0.381-1.157-1.037c-0.324-0.593-0.319-1.444-0.313-2.622
			c0.007-1.344,0.017-3.375-0.705-4.021c-0.233-0.208-0.436-0.401-0.624-0.583c-1.045-1.002-1.481-1.419-5.501-1.632
			c-4.272,0.239-5.482,1.973-5.494,1.991l-1.814-1.119c0.166-0.277,1.782-2.715,7.25-3.003c0.037-0.002,0.076-0.002,0.111,0
			c4.658,0.241,5.533,0.893,6.922,2.225c0.172,0.165,0.357,0.342,0.57,0.533c1.437,1.285,1.425,3.689,1.415,5.62
			c-0.003,0.593-0.007,1.406,0.071,1.626c0.009,0.011,0.01,0.014,0.185,0.098c0.858,0.41,1.399,1.038,1.255,2.772
			c-0.156,1.872-1.202,3.175-1.789,3.768c-0.075,1.044-0.463,3.481-2.398,5.57c-0.361,0.39-0.707,0.715-1.031,0.987
			c1.672,0.163,4.135,0.877,7.73,3.071c8.367,5.566,6.489,11.552,6.405,11.804C59.505,48.363,57.895,48.805,52.213,48.892z"/>
		<path fill="#182133" d="M11.07,48.535c-5.682-0.086-7.292-0.528-7.832-2.148c-0.084-0.252-1.962-6.238,6.37-11.782
			c3.618-2.207,6.091-2.927,7.766-3.091c-0.324-0.273-0.669-0.598-1.032-0.989c-1.935-2.089-2.323-4.526-2.398-5.57
			c-0.586-0.593-1.632-1.896-1.789-3.768c-0.144-1.734,0.397-2.362,1.255-2.772c0.175-0.083,0.176-0.086,0.203-0.135
			c0.06-0.183,0.056-0.996,0.053-1.589c-0.01-1.931-0.022-4.335,1.415-5.62c0.213-0.19,0.398-0.368,0.57-0.533
			c1.39-1.332,2.264-1.983,6.922-2.225c0.038-0.001,0.075-0.001,0.111,0c5.469,0.288,7.084,2.726,7.25,3.003l-1.814,1.119
			c-0.012-0.018-1.221-1.751-5.494-1.991c-4.021,0.212-4.456,0.63-5.502,1.632c-0.188,0.181-0.391,0.375-0.624,0.583
			c-0.722,0.646-0.711,2.677-0.704,4.022c0.005,1.177,0.01,2.028-0.313,2.621c-0.359,0.656-0.858,0.895-1.156,1.037
			c-0.017,0.008-0.034,0.016-0.05,0.023c-0.015,0.094-0.029,0.287,0.001,0.648c0.134,1.616,1.362,2.617,1.374,2.626
			c0.261,0.209,0.416,0.535,0.405,0.869c0,0.02-0.03,2.543,1.848,4.571c1.037,1.121,1.875,1.551,2.431,1.836
			c0.479,0.246,0.973,0.5,1.155,1.095c0.113,0.369,0.062,0.754-0.151,1.143c-0.501,0.914-1.448,0.706-1.904,0.609
			c-0.96-0.209-3.213-0.696-8.684,2.642c-6.955,4.629-5.509,9.265-5.493,9.311c0.175,0.226,1.048,0.619,5.842,0.691L11.07,48.535z"
			/>
	</g>
</g>
</svg>
