<?xml version="1.0" encoding="utf-8"?>
<!-- Generator: Adobe Illustrator 16.0.0, SVG Export Plug-In . SVG Version: 6.00 Build 0)  -->
<!DOCTYPE svg PUBLIC "-//W3C//DTD SVG 1.1//EN" "http://www.w3.org/Graphics/SVG/1.1/DTD/svg11.dtd">
<svg version="1.1" xmlns="http://www.w3.org/2000/svg" xmlns:xlink="http://www.w3.org/1999/xlink" x="0px" y="0px" width="64px"
	 height="64px" viewBox="0 0 64 64" enable-background="new 0 0 64 64" xml:space="preserve">
<g id="图层_1">
	<g>
		<path fill="#182133" d="M55.328,54.25H9.334c-1.104,0-2-0.898-2-2v-7.667c0-1.103,0.896-2,2-2h45.994c1.104,0,2,0.897,2,2v7.667
			C57.328,53.352,56.432,54.25,55.328,54.25z M9.334,44.583v7.667H55.33l-0.002-7.667H9.334z"/>
		<path fill="#182133" d="M54,44.583H10.834l0.039-6.778l6.043-20.889h29.45L54,37.738V44.583z M12.834,42.583H52v-4.489
			l-7.03-19.178H18.42l-5.586,19.309V42.583z"/>
		<rect x="11.834" y="37.083" fill="#182133" width="14" height="2"/>
		<rect x="38.168" y="37.083" fill="#182133" width="13.5" height="2"/>
		<polygon fill="#182133" points="40.146,17.916 38.146,17.916 38.146,13.979 33.959,13.979 33.959,8.479 47.521,8.479 
			47.521,13.916 43.271,13.916 43.271,17.291 41.271,17.291 41.271,11.916 45.521,11.916 45.521,10.479 35.959,10.479 
			35.959,11.979 40.146,11.979 		"/>
		<rect x="28.668" y="46.41" fill="#182133" width="9.5" height="2"/>
		<path fill="#182133" d="M31.331,27.916H20.834c-1.104,0-2-0.897-2-2v-2.667c0-1.103,0.896-2,2-2h10.497c1.103,0,2,0.897,2,2v2.667
			C33.331,27.019,32.434,27.916,31.331,27.916z M20.834,23.249v2.667h10.498l-0.001-2.667H20.834z"/>
		<rect x="34.959" y="21.249" fill="#182133" width="6.709" height="2"/>
		<rect x="21.25" y="28.666" fill="#182133" width="8.084" height="2"/>
		<rect x="34.334" y="24.249" fill="#182133" width="1.75" height="2"/>
		<rect x="37.25" y="24.249" fill="#182133" width="2" height="2"/>
		<rect x="40.25" y="24.249" fill="#182133" width="2" height="2"/>
		<rect x="34.355" y="27.104" fill="#182133" width="1.75" height="2"/>
		<rect x="37.271" y="27.104" fill="#182133" width="2" height="2"/>
		<rect x="40.271" y="27.104" fill="#182133" width="2" height="2"/>
		<rect x="34.355" y="29.979" fill="#182133" width="1.75" height="2"/>
		<rect x="37.271" y="29.979" fill="#182133" width="2" height="2"/>
		<rect x="40.271" y="29.979" fill="#182133" width="2" height="2"/>
	</g>
</g>
<g id="图层_2">
</g>
</svg>
