<?xml version="1.0" encoding="utf-8"?>
<!-- Generator: Adobe Illustrator 16.0.0, SVG Export Plug-In . SVG Version: 6.00 Build 0)  -->
<!DOCTYPE svg PUBLIC "-//W3C//DTD SVG 1.1//EN" "http://www.w3.org/Graphics/SVG/1.1/DTD/svg11.dtd">
<svg version="1.1" xmlns="http://www.w3.org/2000/svg" xmlns:xlink="http://www.w3.org/1999/xlink" x="0px" y="0px" width="64px"
	 height="64px" viewBox="0 0 64 64" enable-background="new 0 0 64 64" xml:space="preserve">
<g id="图层_1">
	<g>
		<path fill="#182133" d="M48.946,54.802L13.56,54.785c-0.1-0.02-9.981-2.008-11.306-12.609C1.118,33.09,9.901,28.589,12.631,27.42
			c-0.224-1.757-0.409-5.823,2.151-8.235c1.436-1.314,3.234-1.977,5.355-1.977c1.865,0,3.581,0.521,4.662,0.941
			c0.761-2.47,3.347-7.598,11.696-7.598c4.697,0.057,8.285,1.428,10.677,4.076c2.725,3.017,3.08,6.806,3.093,8.448
			c2.317,0.839,8.891,4.084,9.974,14.118c1.315,12.184-10.984,17.477-11.108,17.53L48.946,54.802z M13.851,52.802h34.685
			c1.465-0.666,10.803-5.326,9.716-15.393c-1.16-10.743-9.139-12.613-9.22-12.631l-0.861-0.188l0.079-0.877
			c0.004-0.043,0.349-4.538-2.574-7.759c-2.004-2.208-5.096-3.353-9.192-3.402c-9.148,0-9.963,6.813-9.993,7.104l-0.154,1.474
			l-1.311-0.694c-0.023-0.013-2.343-1.227-4.888-1.227c-1.605,0-2.949,0.485-3.994,1.441c-2.44,2.3-1.431,7.144-1.42,7.191
			l0.187,0.869l-0.841,0.288c-0.448,0.153-10.964,3.867-9.831,12.93C5.324,50.617,12.976,52.603,13.851,52.802z"/>
		<polygon fill="#182133" points="31.665,27.098 25.603,37.473 37.665,37.473 		"/>
		<rect x="30.634" y="36.473" fill="#182133" width="2" height="10.288"/>
	</g>
</g>
<g id="图层_2">
</g>
</svg>
