<?xml version="1.0" encoding="utf-8"?>
<!-- Generator: Adobe Illustrator 16.0.0, SVG Export Plug-In . SVG Version: 6.00 Build 0)  -->
<!DOCTYPE svg PUBLIC "-//W3C//DTD SVG 1.1//EN" "http://www.w3.org/Graphics/SVG/1.1/DTD/svg11.dtd">
<svg version="1.1" xmlns="http://www.w3.org/2000/svg" xmlns:xlink="http://www.w3.org/1999/xlink" x="0px" y="0px" width="64px"
	 height="64px" viewBox="0 0 64 64" enable-background="new 0 0 64 64" xml:space="preserve">
<g id="图层_1">
	<g>
		<path fill="#182133" d="M59.004,26.482H6.621l0.043-1.042C7.13,14.154,18.616,5.313,32.813,5.313s25.683,8.842,26.149,20.128
			L59.004,26.482z M8.741,24.482h48.144c-1.072-9.709-11.4-17.17-24.072-17.17S9.813,14.773,8.741,24.482z"/>
		<path fill="#182133" d="M32.813,57.398c-14.193,0-25.679-7.702-26.149-17.535l-0.05-1.048h52.397l-0.05,1.048
			C58.492,49.696,47.006,57.398,32.813,57.398z M8.764,40.815c1.198,8.133,11.67,14.583,24.049,14.583s22.851-6.45,24.049-14.583
			H8.764z"/>
		<path fill="#182133" d="M56.962,36.565H7.813c-1.103,0-2-0.897-2-2v-0.917c0-1.103,0.897-2,2-2h49.15c1.103,0,2,0.897,2,2v0.917
			C58.962,35.668,58.065,36.565,56.962,36.565z M7.813,33.648v0.917h49.151l-0.001-0.917H7.813z"/>
		<path fill="#182133" d="M27,31.486c-0.088,0-0.176-0.003-0.266-0.01c-1.271-0.1-2.125-0.83-2.878-1.475
			c-0.842-0.72-1.566-1.338-2.906-1.27c-1.163,0.063-1.668,0.505-2.367,1.116c-0.805,0.705-1.807,1.581-3.829,1.631
			c-2.111,0.066-3.647-0.94-4.877-1.737c-0.835-0.541-1.556-1.008-2.214-1.008v-2c1.25,0,2.293,0.676,3.302,1.33
			c1.102,0.714,2.241,1.429,3.74,1.417c1.299-0.032,1.828-0.496,2.561-1.137c0.768-0.672,1.723-1.508,3.576-1.608
			c2.146-0.113,3.345,0.917,4.315,1.747c0.689,0.59,1.143,0.954,1.734,1c0.715,0.066,1.512-0.476,2.437-1.093
			c1.164-0.776,2.484-1.656,4.152-1.656c1.714,0,2.814,0.906,3.698,1.634c0.836,0.689,1.391,1.111,2.22,1.112
			c0.001,0,0.002,0,0.004,0c0.909,0,1.613-0.541,2.429-1.166c0.966-0.741,2.06-1.58,3.649-1.58c1.616,0,2.958,0.891,4.141,1.677
			c0.848,0.563,1.643,1.091,2.233,1.07c0.634-0.026,1.562-0.577,2.459-1.11c1.293-0.768,2.758-1.637,4.333-1.637v2
			c-1.026,0-2.188,0.69-3.313,1.357c-1.162,0.689-2.258,1.34-3.396,1.388c-1.243,0.05-2.347-0.688-3.424-1.402
			c-0.994-0.66-2.022-1.343-3.035-1.343c-0.91,0-1.615,0.541-2.432,1.167c-0.965,0.74-2.06,1.579-3.646,1.579
			c-0.002,0-0.004,0-0.007,0c-1.587-0.002-2.597-0.834-3.489-1.568c-0.799-0.658-1.43-1.178-2.426-1.178
			c-1.063,0-2.024,0.641-3.043,1.32C29.378,30.758,28.286,31.486,27,31.486z"/>
	</g>
</g>
<g id="图层_2">
</g>
</svg>
